Coordinates
version=1
nRows=37
nColumns=38
inDegrees=no

Units are S.I. units (second, meters, Newtons, ...)
If the header above contains a line with 'inDegrees', this indicates whether rotational values are in degrees (yes) or radians (no).

endheader
time	pelvis_tilt	pelvis_list	pelvis_rotation	pelvis_tx	pelvis_ty	pelvis_tz	hip_flexion_r	hip_adduction_r	hip_rotation_r	knee_angle_r	ankle_angle_r	subtalar_angle_r	mtp_angle_r	hip_flexion_l	hip_adduction_l	hip_rotation_l	knee_angle_l	ankle_angle_l	subtalar_angle_l	mtp_angle_l	lumbar_extension	lumbar_bending	lumbar_rotation	arm_flex_r	arm_add_r	arm_rot_r	elbow_flex_r	pro_sup_r	wrist_flex_r	wrist_dev_r	arm_flex_l	arm_add_l	arm_rot_l	elbow_flex_l	pro_sup_l	wrist_flex_l	wrist_dev_l
0	0.27378	1.50227	-1.74314	0.67921	1.88673	0.928949	-0.0522947	-0.0780622	0.0274079	0.212857	0.159323	0	0	-0.113291	0.0236249	-0.145076	0	0.0351009	0	0	-0.125168	0.000745117	-0.0780002	-0.136213	-0.343795	0.525699	0.668698	1.23887	0	0	-0.127566	-0.317547	0.325142	0.597694	1.50703	0	0
0.01	0.45028	1.48869	-1.92042	0.678707	1.88673	0.931219	-0.063381	-0.0953217	0.027077	0.212369	0.159233	0	0	-0.124669	0.036196	-0.142022	0	0.021437	0	0	-0.137345	-0.0195078	-0.078897	-0.125216	-0.300111	0.447152	0.603652	1.26713	0	0	-0.126848	-0.322021	0.321097	0.601211	1.50588	0	0
0.02	0.430188	1.4881	-1.90118	0.677692	1.88627	0.931427	-0.0659844	-0.092005	0.0306842	0.20959	0.157272	0	0	-0.125224	0.0345625	-0.160714	0	0.0227527	0	0	-0.139412	-0.0195458	-0.0754154	-0.130696	-0.283084	0.369172	0.592216	1.42748	0	0	-0.124385	-0.326794	0.324397	0.606797	1.50049	0	0
0.03	0.276965	1.50738	-1.74193	0.678217	1.88635	0.92885	-0.0489241	-0.0743589	0.0278787	0.211136	0.157812	0	0	-0.104196	0.0210455	-0.163106	0	0.0390171	0	0	-0.12186	-0.000999783	-0.0795802	-0.13589	-0.286888	0.362142	0.600205	1.43686	0	0	-0.124704	-0.326369	0.324604	0.612011	1.49826	0	0
0.04	0.47117	1.49123	-1.93678	0.678818	1.88647	0.931031	-0.0622049	-0.0953779	0.0243386	0.210882	0.159273	0	0	-0.121097	0.036203	-0.139612	0	0.0233919	0	0	-0.135615	-0.0190694	-0.0784653	-0.135389	-0.284959	0.357354	0.599311	1.43612	0	0	-0.119489	-0.326885	0.322147	0.61103	1.49765	0	0
0.05	0.343903	1.50796	-1.80409	0.679434	1.88636	0.928731	-0.0481829	-0.0804593	0.0206089	0.211856	0.160109	0	0	-0.104972	0.0255888	-0.136603	0	0.0351882	0	0	-0.120941	-0.00262539	-0.0827725	-0.139784	-0.289455	0.353553	0.608623	1.43422	0	0	-0.119537	-0.325981	0.319215	0.615918	1.49707	0	0
0.06	0.56451	1.47616	-2.03627	0.677682	1.88505	0.933066	-0.0762819	-0.1102	0.0258367	0.20579	0.158347	0	0	-0.142546	0.0526601	-0.134202	0	0.0166324	0	0	-0.146199	-0.0351575	-0.0742766	-0.135677	-0.280358	0.352437	0.599649	1.43409	0	0	-0.115935	-0.331625	0.314603	0.616077	1.49655	0	0
0.07	0.563246	1.47508	-2.03376	0.677732	1.88505	0.93316	-0.0783628	-0.110354	0.02633	0.204546	0.158028	0	0	-0.143856	0.0529452	-0.132059	0	0.015814	0	0	-0.148115	-0.0350712	-0.0749838	-0.136459	-0.280878	0.350057	0.603395	1.43459	0	0	-0.113534	-0.332761	0.311602	0.620223	1.49621	0	0
0.08	0.528594	1.48432	-1.99347	0.678137	1.88542	0.932024	-0.0707934	-0.102198	0.0237118	0.20598	0.158412	0	0	-0.129603	0.0442746	-0.129575	0	0.0253115	0	0	-0.141619	-0.0265199	-0.0792102	-0.138478	-0.283615	0.348866	0.610741	1.43555	0	0	-0.111638	-0.333013	0.308376	0.624653	1.49578	0	0
0.09	0.42691	1.50095	-1.88311	0.678625	1.88604	0.929921	-0.0567766	-0.0862191	0.0201457	0.208497	0.158635	0	0	-0.0981928	0.0264244	-0.141665	0.0253592	0.0522959	0	0	-0.12908	-0.0107254	-0.085625	-0.140915	-0.287821	0.349616	0.619451	1.43211	0	0	-0.109958	-0.333433	0.307385	0.629845	1.49332	0	0
0.1	0.722357	1.46661	-2.17818	0.67947	1.88661	0.934126	-0.077301	-0.131477	0.00823272	0.208731	0.16127	0	0	-0.121801	0.0695008	-0.170714	0.0145251	0.0260063	0	0	-0.15364	-0.0513772	-0.0902655	-0.132044	-0.279401	0.34745	0.608975	1.43255	0	0	-0.101026	-0.336717	0.302006	0.626095	1.49425	0	0
0.11	0.651607	1.49829	-2.09406	0.68213	1.88746	0.929984	-0.0509669	-0.108682	-0.00220187	0.214996	0.165461	0	0	-0.0947032	0.0482591	-0.142641	0.0124507	0.0347656	0	0	-0.128852	-0.0217581	-0.0993174	-0.139043	-0.291902	0.34676	0.626812	1.43277	0	0	-0.0996396	-0.330893	0.302187	0.629805	1.49393	0	0
0.12	0.717629	1.4845	-2.16339	0.681641	1.88708	0.931683	-0.0614253	-0.121797	-0.00182002	0.213074	0.165442	0	0	-0.112764	0.0599437	-0.140065	0	0.0230441	0	0	-0.139251	-0.0352631	-0.0972162	-0.136274	-0.288616	0.345742	0.624553	1.43312	0	0	-0.0958007	-0.333492	0.298842	0.631312	1.4932	0	0
0.13	0.762454	1.46687	-2.21268	0.680603	1.88671	0.933895	-0.075554	-0.136328	0.000762884	0.2096	0.163863	0	0	-0.11628	0.0723352	-0.154198	0.0201692	0.0276041	0	0	-0.153374	-0.0518882	-0.0945906	-0.131692	-0.283039	0.34344	0.619417	1.43502	0	0	-0.0915926	-0.337533	0.295038	0.633763	1.49257	0	0
0.14	0.712983	1.48586	-2.15608	0.681024	1.88718	0.931701	-0.0616172	-0.118955	-0.00134698	0.21162	0.164334	0	0	-0.0762837	0.0542948	-0.171916	0.0688538	0.0589493	0	0	-0.140618	-0.0345889	-0.09902	-0.133282	-0.287286	0.343088	0.627026	1.43544	0	0	-0.0896466	-0.337322	0.294675	0.638747	1.49074	0	0
0.15	0.681919	1.49605	-2.12027	0.681269	1.88749	0.930495	-0.0540082	-0.110009	-0.00328951	0.212464	0.164813	0	0	-0.0578034	0.0437288	-0.175308	0.0899721	0.0740633	0	0	-0.133913	-0.0256087	-0.102022	-0.133362	-0.289799	0.343439	0.631941	1.43449	0	0	-0.0868886	-0.338049	0.294627	0.643	1.48911	0	0
0.16	0.675137	1.50082	-2.11002	0.681369	1.88775	0.929946	-0.0502192	-0.10636	-0.00507674	0.212719	0.165324	0	0	-0.0536943	0.0370726	-0.175764	0.0937228	0.0819171	0	0	-0.13114	-0.0221157	-0.104374	-0.13206	-0.290762	0.344762	0.634271	1.43481	0	0	-0.0835069	-0.339562	0.294779	0.646537	1.48816	0	0
0.17	0.627635	1.51152	-2.05748	0.681618	1.8881	0.92866	-0.0418299	-0.0970487	-0.00771671	0.213945	0.166106	0	0	-0.0340792	0.0257687	-0.180256	0.116101	0.0977381	0	0	-0.12394	-0.01287	-0.107666	-0.131716	-0.293381	0.347457	0.638467	1.43753	0	0	-0.0809308	-0.340637	0.295351	0.651258	1.48615	0	0
0.18	0.64449	1.51302	-2.07269	0.681694	1.88814	0.928478	-0.0401577	-0.097239	-0.0095846	0.214118	0.166905	0	0	-0.0283223	0.0249263	-0.182003	0.123815	0.101743	0	0	-0.123135	-0.0128781	-0.108345	-0.129637	-0.293345	0.34803	0.638302	1.4393	0	0	-0.0772456	-0.341975	0.295404	0.65361	1.48446	0	0
0.19	0.664007	1.51282	-2.09117	0.681676	1.88801	0.928505	-0.0404506	-0.0983798	-0.010747	0.213584	0.167589	0	0	-0.0257465	0.0252449	-0.183409	0.128537	0.103899	0	0	-0.123592	-0.0140978	-0.108587	-0.127322	-0.292941	0.347916	0.637779	1.44002	0	0	-0.0739368	-0.343585	0.295634	0.656426	1.48323	0	0
0.2	0.673291	1.51286	-2.09919	0.68172	1.88787	0.928493	-0.0410325	-0.0988222	-0.0117657	0.212833	0.168183	0	0	-0.0235528	0.0249229	-0.184166	0.132671	0.105961	0	0	-0.124098	-0.0144642	-0.109064	-0.124982	-0.292804	0.346463	0.637845	1.43847	0	0	-0.0707778	-0.345067	0.296146	0.6594	1.48254	0	0
0.21	0.595195	1.51283	-2.04042	0.680078	1.8892	0.928795	-0.0333509	-0.0945669	0.0145223	0.221072	0.166718	0	0	-0.0242088	0.0203487	-0.205011	0.135887	0.108223	0	0	-0.131924	-0.0100802	-0.0887583	-0.117962	-0.297468	0.348165	0.641326	1.43698	0	0	-0.0615696	-0.342853	0.29715	0.660409	1.48167	0	0
0.22	0.676789	1.51407	-2.10076	0.681811	1.88756	0.928362	-0.0415321	-0.0982978	-0.0128874	0.211394	0.169611	0	0	-0.0174704	0.0232294	-0.186366	0.143067	0.11154	0	0	-0.124567	-0.0135582	-0.109739	-0.12028	-0.294521	0.351147	0.639405	1.4383	0	0	-0.0654432	-0.34789	0.296767	0.665832	1.48098	0	0
0.23	0.677165	1.51489	-2.10057	0.681864	1.88737	0.928278	-0.0413453	-0.0980152	-0.0135919	0.211216	0.170982	0	0	-0.0149474	0.0225109	-0.186069	0.146936	0.11372	0	0	-0.124654	-0.0129262	-0.109663	-0.117792	-0.29528	0.352633	0.640072	1.43872	0	0	-0.0630784	-0.349277	0.296833	0.668963	1.47988	0	0
0.24	0.585521	1.516	-2.02824	0.680185	1.88857	0.928441	-0.0330512	-0.0926149	0.0126951	0.219516	0.170231	0	0	-0.0147748	0.0165776	-0.206591	0.150707	0.117202	0	0	-0.13157	-0.00757162	-0.0893614	-0.110852	-0.299621	0.352349	0.6439	1.43681	0	0	-0.0549708	-0.347146	0.297194	0.670613	1.4786	0	0
0.25	0.673806	1.51682	-2.09684	0.682074	1.88683	0.927999	-0.0409774	-0.0973515	-0.0140487	0.210724	0.173949	0	0	-0.00977783	0.0205733	-0.188702	0.15562	0.120016	0	0	-0.124568	-0.0110854	-0.108663	-0.113458	-0.296852	0.350538	0.643128	1.43334	0	0	-0.0591404	-0.351126	0.29664	0.676068	1.47825	0	0
0.26	0.74172	1.50639	-2.16805	0.682061	1.88616	0.929169	-0.0493788	-0.108157	-0.0138878	0.209149	0.175499	0	0	-0.0255116	0.0325617	-0.184059	0.139038	0.107976	0	0	-0.132394	-0.0210181	-0.105686	-0.109926	-0.295651	0.350987	0.641369	1.43101	0	0	-0.0568118	-0.352649	0.295756	0.678849	1.4798	0	0
0.27	0.710044	1.51182	-2.13555	0.682514	1.88564	0.928363	-0.0468241	-0.103628	-0.0145932	0.208816	0.177473	0	0	-0.0166695	0.0335232	-0.173103	0.140636	0.103277	0	0	-0.128552	-0.0151654	-0.10487	-0.109901	-0.299083	0.352375	0.646062	1.4315	0	0	-0.0564454	-0.352311	0.295443	0.683528	1.4804	0	0
0.28	0.820892	1.4901	-2.25169	0.682433	1.88463	0.93074	-0.0626721	-0.126116	-0.0159844	0.20646	0.179847	0	0	-0.0698097	0.0559605	-0.157878	0.069726	0.0666001	0	0	-0.143307	-0.0364702	-0.101376	-0.104935	-0.295041	0.353029	0.640896	1.43538	0	0	-0.0544123	-0.354686	0.291178	0.684869	1.48298	0	0
0.29	0.80335	1.48981	-2.23581	0.68159	1.88398	0.930907	-0.065165	-0.123818	-0.012783	0.204815	0.180282	0	0	-0.070848	0.0539514	-0.173978	0.0706754	0.068331	0	0	-0.145114	-0.0372288	-0.0988849	-0.102062	-0.292943	0.352331	0.640046	1.43381	0	0	-0.0539491	-0.357533	0.287781	0.688144	1.48187	0	0
0.3	0.725487	1.50824	-2.15211	0.682156	1.88392	0.928722	-0.05359	-0.106435	-0.0143993	0.20573	0.182038	0	0	-0.0399955	0.0369686	-0.181908	0.104727	0.0912185	0	0	-0.133134	-0.0196597	-0.101566	-0.102518	-0.297757	0.352912	0.647378	1.42982	0	0	-0.0550406	-0.356744	0.285447	0.693325	1.47878	0	0
0.31	0.727938	1.50963	-2.15057	0.682598	1.88366	0.928584	-0.0542278	-0.10592	-0.0190377	0.204739	0.183657	0	0	-0.0352491	0.0354449	-0.180484	0.112005	0.0952574	0	0	-0.133109	-0.0187563	-0.104404	-0.0996404	-0.29801	0.354586	0.648403	1.42829	0	0	-0.0544885	-0.358	0.283206	0.695986	1.47595	0	0
0.32	0.843168	1.49369	-2.26604	0.683649	1.88326	0.930242	-0.0641881	-0.126278	-0.0267427	0.204465	0.187353	0	0	-0.0567751	0.0529867	-0.15763	0.0908482	0.0794799	0	0	-0.143598	-0.0349011	-0.105219	-0.0941742	-0.296797	0.356879	0.645466	1.42544	0	0	-0.052277	-0.358309	0.280008	0.695286	1.46677	0	0
0.33	0.734228	1.4947	-2.15491	0.684073	1.88289	0.930993	-0.102748	-0.111919	0.0293182	0.137827	0.151266	0	0	-0.0624497	0.0423119	-0.148444	0.0916549	0.0823168	0	0	-0.149966	-0.0263118	-0.105378	-0.0899973	-0.298605	0.358485	0.646166	1.42444	0	0	-0.0500307	-0.356799	0.277088	0.693957	1.46135	0	0
0.34	0.854665	1.49454	-2.27645	0.684498	1.88261	0.930096	-0.0664185	-0.127774	-0.0272554	0.200699	0.188897	0	0	-0.0526809	0.0534223	-0.158514	0.0979112	0.0826474	0	0	-0.145261	-0.0344445	-0.103623	-0.0877901	-0.299094	0.360729	0.648005	1.4236	0	0	-0.0507214	-0.358494	0.275153	0.696021	1.45359	0	0
0.35	0.864962	1.49572	-2.28474	0.684919	1.88207	0.929961	-0.0676433	-0.127952	-0.0304815	0.198174	0.190244	0	0	-0.0497662	0.0529232	-0.158031	0.102029	0.0850559	0	0	-0.144814	-0.0343951	-0.104049	-0.0851308	-0.299231	0.362708	0.648229	1.42426	0	0	-0.0505734	-0.359128	0.27334	0.695059	1.446	0	0
0.36	0.856432	1.49649	-2.27751	0.684408	1.8813	0.930188	-0.0709009	-0.125741	-0.0263043	0.192637	0.18821	0	0	-0.0493248	0.0509623	-0.174613	0.103639	0.0867001	0	0	-0.146622	-0.0330141	-0.105032	-0.0789419	-0.298015	0.368501	0.646396	1.434	0	0	-0.0351375	-0.332568	-0.0105874	0.689229	0.389038	0	0
